<?xml version="1.0" encoding="UTF-8" standalone="no"?>
<!DOCTYPE svg PUBLIC "-//W3C//DTD SVG 1.1//EN" "http://www.w3.org/Graphics/SVG/1.1/DTD/svg11.dtd">
<svg width="100%" height="100%" viewBox="0 0 879 491" version="1.1" xmlns="http://www.w3.org/2000/svg" xmlns:xlink="http://www.w3.org/1999/xlink" xml:space="preserve" xmlns:serif="http://www.serif.com/" style="fill-rule:evenodd;clip-rule:evenodd;stroke-linejoin:round;stroke-miterlimit:2;">
    <g transform="matrix(1,0,0,1,-11043,-3462.58)">
        <g transform="matrix(3.15529,0,0,5.06468,2410.64,-3064.13)">
            <g transform="matrix(1.06729,0,0,0.664917,1334.7,894.668)">
                <path d="M1330.76,651.719C1333.56,652.052 1335.89,653.511 1337.76,656.094C1339.62,658.677 1340.49,661.536 1340.36,664.669C1340.22,667.602 1339.48,670.136 1338.13,672.269C1336.78,674.402 1335.12,675.911 1333.16,676.794C1331.19,677.677 1329.16,678.152 1327.06,678.219C1324.96,678.286 1322.99,677.777 1321.16,676.694C1319.32,675.611 1317.97,674.119 1317.11,672.219C1321.87,674.119 1325.61,674.286 1328.33,672.719C1331.05,671.152 1332.44,668.152 1332.51,663.719C1332.57,660.752 1331.64,658.227 1329.71,656.144C1327.77,654.061 1325.01,652.919 1321.41,652.719C1323.61,651.986 1325.51,650.894 1327.11,649.444C1328.71,647.994 1329.42,646.252 1329.26,644.219C1329.16,642.652 1328.64,641.502 1327.71,640.769C1326.77,640.036 1325.52,639.786 1323.96,640.019C1321.46,640.319 1320.19,642.302 1320.16,645.969C1320.16,648.269 1320.33,652.844 1320.68,659.694C1321.03,666.544 1321.32,670.536 1321.56,671.669C1320.32,671.369 1318.86,671.244 1317.18,671.294C1315.5,671.344 1314.04,671.519 1312.81,671.819C1313.34,669.486 1313.58,663.677 1313.53,654.394C1313.48,645.111 1313.24,639.186 1312.81,636.619C1315.54,636.919 1318.62,636.736 1322.06,636.069C1326.19,635.336 1329.4,635.619 1331.68,636.919C1333.96,638.219 1335.22,640.352 1335.46,643.319C1335.56,644.919 1335.2,646.594 1334.38,648.344C1333.56,650.094 1332.36,651.219 1330.76,651.719Z" style="fill:rgb(255,96,166);fill-rule:nonzero;"/>
                <path d="M1340.51,652.869C1340.64,648.602 1341.49,644.936 1343.06,641.869C1344.62,638.802 1346.76,636.711 1349.46,635.594C1352.16,634.477 1355.36,634.636 1359.06,636.069C1357.66,636.269 1356.39,636.661 1355.26,637.244C1354.12,637.827 1353.2,638.486 1352.48,639.219C1351.76,639.952 1351.14,640.861 1350.61,641.944C1350.07,643.027 1349.66,643.994 1349.38,644.844C1349.1,645.694 1348.87,646.736 1348.71,647.969C1348.54,649.202 1348.44,650.136 1348.41,650.769C1348.37,651.402 1348.34,652.202 1348.31,653.169C1348.14,656.902 1348.52,660.127 1349.46,662.844C1350.39,665.561 1351.89,666.986 1353.96,667.119C1358.19,667.486 1360.41,663.019 1360.61,653.719C1360.67,650.086 1360.11,646.994 1358.91,644.444C1357.71,641.894 1355.92,640.252 1353.56,639.519C1354.59,639.052 1355.67,638.794 1356.81,638.744C1357.94,638.694 1359.06,638.852 1360.18,639.219C1361.3,639.586 1362.36,640.194 1363.36,641.044C1364.36,641.894 1365.23,642.936 1365.98,644.169C1366.73,645.402 1367.31,646.927 1367.73,648.744C1368.15,650.561 1368.32,652.536 1368.26,654.669C1368.06,660.702 1366.63,665.219 1363.98,668.219C1361.33,671.219 1357.89,672.736 1353.66,672.769C1350.72,672.769 1348.21,671.786 1346.13,669.819C1344.05,667.852 1342.56,665.394 1341.68,662.444C1340.8,659.494 1340.41,656.302 1340.51,652.869Z" style="fill:rgb(255,96,166);fill-rule:nonzero;"/>
                <path d="M1397.01,635.769C1396.54,638.069 1396.38,644.202 1396.53,654.169C1396.68,664.136 1396.96,670.069 1397.36,671.969C1396.22,671.636 1394.73,671.502 1392.88,671.569C1391.03,671.636 1389.54,671.819 1388.41,672.119C1388.81,670.386 1389.08,665.911 1389.23,658.694C1389.38,651.477 1389.37,645.502 1389.21,640.769C1387.37,640.502 1385.46,640.452 1383.46,640.619C1383.46,640.986 1383.47,641.269 1383.51,641.469C1383.84,654.002 1382.66,663.502 1379.96,669.969C1379.42,671.236 1378.61,672.361 1377.51,673.344C1376.41,674.327 1375.17,675.036 1373.81,675.469C1372.44,675.902 1370.97,675.877 1369.41,675.394C1367.84,674.911 1366.41,673.902 1365.11,672.369C1373.27,670.236 1377.12,661.369 1376.66,645.769L1376.66,645.069C1376.59,642.936 1376.31,641.152 1375.83,639.719C1375.35,638.286 1374.47,637.202 1373.21,636.469C1373.91,635.769 1375.15,635.319 1376.93,635.119C1378.71,634.919 1381.02,635.052 1383.86,635.519C1387.79,636.219 1392.17,636.302 1397.01,635.769Z" style="fill:rgb(255,96,166);fill-rule:nonzero;"/>
                <path d="M1437.16,663.669C1437.46,665.769 1437.89,667.244 1438.46,668.094C1439.02,668.944 1440.16,669.502 1441.86,669.769C1441.16,671.402 1439.59,672.369 1437.16,672.669C1434.72,672.969 1432.82,672.369 1431.46,670.869C1430.76,669.969 1430.19,668.619 1429.76,666.819C1427.56,671.452 1424.36,673.002 1420.16,671.469C1418.12,670.736 1416.72,669.069 1415.96,666.469C1414.82,668.836 1413.4,670.452 1411.68,671.319C1409.96,672.186 1408.06,672.236 1405.96,671.469C1405.19,671.202 1404.52,670.802 1403.96,670.269C1403.39,669.736 1402.92,669.177 1402.56,668.594C1402.19,668.011 1401.9,667.219 1401.68,666.219C1401.46,665.219 1401.3,664.336 1401.18,663.569C1401.06,662.802 1401,661.719 1400.98,660.319C1400.96,658.919 1400.97,657.786 1401.01,656.919C1401.04,656.052 1401.08,654.777 1401.13,653.094C1401.18,651.411 1401.22,650.119 1401.26,649.219C1401.36,644.619 1401.15,641.419 1400.63,639.619C1400.11,637.819 1398.92,636.186 1397.06,634.719C1398.19,634.286 1399.42,634.111 1400.76,634.194C1402.09,634.277 1403.35,634.519 1404.53,634.919C1405.71,635.319 1406.71,636.119 1407.53,637.319C1408.35,638.519 1408.79,640.002 1408.86,641.769C1408.89,642.636 1408.83,644.719 1408.68,648.019C1408.53,651.319 1408.46,654.486 1408.46,657.519C1408.46,660.552 1408.64,662.636 1409.01,663.769C1409.71,665.902 1410.69,666.736 1411.96,666.269C1413.12,665.836 1414.04,664.569 1414.71,662.469C1414.97,661.669 1415.14,660.836 1415.21,659.969C1415.17,658.769 1415.21,656.919 1415.31,654.419C1415.41,651.919 1415.46,650.186 1415.46,649.219C1415.52,646.452 1415.49,644.219 1415.36,642.519C1415.22,640.819 1415.01,639.386 1414.71,638.219C1414.41,637.052 1414.26,636.419 1414.26,636.319C1416.69,636.552 1419.66,636.602 1423.16,636.469C1422.99,638.002 1422.83,640.611 1422.68,644.294C1422.53,647.977 1422.48,651.852 1422.53,655.919C1422.58,659.986 1422.81,662.602 1423.21,663.769C1423.91,665.869 1424.84,666.702 1426.01,666.269C1427.17,665.836 1428.04,664.436 1428.61,662.069C1428.84,661.136 1428.99,660.136 1429.06,659.069C1429.02,657.269 1429.06,654.569 1429.18,650.969C1429.3,647.369 1429.33,644.394 1429.28,642.044C1429.23,639.694 1429.01,637.886 1428.61,636.619C1429.71,636.752 1431.25,636.811 1433.23,636.794C1435.21,636.777 1436.71,636.719 1437.71,636.619C1437.41,638.386 1437.15,642.502 1436.93,648.969C1436.71,655.436 1436.79,660.336 1437.16,663.669Z" style="fill:rgb(255,96,166);fill-rule:nonzero;"/>
                <path d="M1462.11,663.819C1462.14,664.886 1462.08,665.861 1461.93,666.744C1461.78,667.627 1461.52,668.352 1461.16,668.919C1460.79,669.486 1460.43,669.977 1460.08,670.394C1459.73,670.811 1459.24,671.119 1458.61,671.319C1457.97,671.519 1457.47,671.686 1457.11,671.819C1456.74,671.952 1456.18,672.011 1455.43,671.994C1454.68,671.977 1454.17,671.969 1453.91,671.969C1453.64,671.969 1453.16,671.919 1452.46,671.819L1451.41,671.669C1449.67,671.402 1447.11,671.486 1443.71,671.919C1444.04,668.986 1444.22,664.202 1444.26,657.569C1444.29,650.936 1444.07,646.402 1443.61,643.969C1442.64,640.069 1441.16,637.936 1439.16,637.569C1439.99,636.902 1441.12,636.519 1442.56,636.419C1443.36,636.319 1445.86,636.427 1450.06,636.744C1454.26,637.061 1457.61,637.052 1460.11,636.719C1460.31,638.386 1460.2,639.727 1459.78,640.744C1459.36,641.761 1458.73,642.419 1457.88,642.719C1457.03,643.019 1456.05,643.211 1454.93,643.294C1453.81,643.377 1452.64,643.352 1451.41,643.219C1450.77,643.152 1450.29,643.119 1449.96,643.119C1450.12,644.419 1450.31,646.686 1450.51,649.919C1451.17,649.886 1453.69,649.736 1458.06,649.469C1458.06,649.669 1458.04,650.102 1458.01,650.769C1457.97,651.436 1457.96,652.127 1457.96,652.844C1457.96,653.561 1457.99,654.252 1458.06,654.919C1456.19,654.486 1453.74,654.402 1450.71,654.669C1450.74,655.702 1450.8,657.436 1450.88,659.869C1450.96,662.302 1451.04,664.102 1451.11,665.269C1453.51,665.469 1455.7,665.427 1457.68,665.144C1459.66,664.861 1461.14,664.419 1462.11,663.819Z" style="fill:rgb(255,96,166);fill-rule:nonzero;"/>
                <path d="M1479.06,648.119C1481.96,648.252 1484.21,649.361 1485.83,651.444C1487.45,653.527 1488.26,656.352 1488.26,659.919C1488.26,663.752 1486.92,666.727 1484.26,668.844C1481.59,670.961 1478.52,672.019 1475.06,672.019C1473.02,672.019 1470.74,671.936 1468.21,671.769C1465.67,671.602 1463.74,671.552 1462.41,671.619C1463.14,668.252 1463.49,662.027 1463.46,652.944C1463.42,643.861 1463.09,638.402 1462.46,636.569C1463.06,636.569 1464.16,636.494 1465.78,636.344C1467.4,636.194 1469.24,636.011 1471.31,635.794C1473.37,635.577 1474.81,635.436 1475.61,635.369C1477.27,635.236 1478.78,635.511 1480.13,636.194C1481.48,636.877 1482.4,637.911 1482.88,639.294C1483.36,640.677 1483.07,642.402 1482.01,644.469C1481.31,643.036 1479.9,642.144 1477.78,641.794C1475.66,641.444 1473.26,641.752 1470.56,642.719C1470.56,657.719 1470.64,666.169 1470.81,668.069C1470.87,668.069 1471.3,668.061 1472.08,668.044C1472.86,668.027 1473.47,667.986 1473.91,667.919C1474.34,667.852 1474.96,667.744 1475.76,667.594C1476.56,667.444 1477.21,667.194 1477.71,666.844C1478.21,666.494 1478.72,666.044 1479.26,665.494C1479.79,664.944 1480.18,664.227 1480.43,663.344C1480.68,662.461 1480.79,661.436 1480.76,660.269C1480.72,658.069 1480.21,656.336 1479.21,655.069C1478.21,653.802 1476.99,653.169 1475.56,653.169C1474.12,653.169 1472.61,653.602 1471.01,654.469C1471.01,652.536 1471.8,650.969 1473.38,649.769C1474.96,648.569 1476.86,648.019 1479.06,648.119Z" style="fill:rgb(255,96,166);fill-rule:nonzero;"/>
                <path d="M1516.36,636.419C1515.92,638.619 1515.81,644.611 1516.01,654.394C1516.21,664.177 1516.51,669.986 1516.91,671.819C1515.77,671.519 1514.26,671.402 1512.38,671.469C1510.5,671.536 1508.99,671.719 1507.86,672.019C1508.39,669.852 1508.72,663.852 1508.86,654.019C1506.89,653.686 1504.57,653.386 1501.91,653.119C1501.91,662.986 1502.27,669.186 1503.01,671.719C1499.81,671.319 1496.81,671.319 1494.01,671.719C1494.47,667.119 1494.77,660.769 1494.91,652.669C1491.64,652.569 1489.39,652.669 1488.16,652.969C1488.09,652.436 1488.06,651.836 1488.06,651.169C1489.32,650.802 1491.62,650.419 1494.96,650.019C1495.02,646.952 1494.99,644.686 1494.86,643.219C1494.42,638.419 1492.29,635.452 1488.46,634.319C1489.36,633.419 1490.54,632.844 1492.01,632.594C1493.47,632.344 1494.91,632.444 1496.33,632.894C1497.75,633.344 1498.99,634.344 1500.06,635.894C1501.12,637.444 1501.69,639.419 1501.76,641.819C1501.82,643.286 1501.86,645.836 1501.86,649.469C1504.79,649.336 1507.12,649.336 1508.86,649.469C1508.86,642.602 1508.71,638.252 1508.41,636.419C1511.51,636.752 1514.16,636.752 1516.36,636.419Z" style="fill:rgb(255,96,166);fill-rule:nonzero;"/>
                <path d="M1542.11,636.069C1541.64,637.902 1542.1,643.602 1543.48,653.169C1544.86,662.736 1545.91,669.019 1546.61,672.019C1545.34,671.686 1543.76,671.544 1541.86,671.594C1539.96,671.644 1538.39,671.802 1537.16,672.069C1537.46,670.869 1537.49,668.402 1537.26,664.669C1535.79,664.436 1533.52,664.119 1530.46,663.719C1529.72,666.519 1529.12,668.669 1528.66,670.169C1528.19,671.602 1527.32,672.836 1526.06,673.869C1524.79,674.902 1523.38,675.611 1521.83,675.994C1520.28,676.377 1518.62,676.319 1516.86,675.819C1515.09,675.319 1513.52,674.336 1512.16,672.869C1514.79,672.902 1516.98,672.202 1518.73,670.769C1520.48,669.336 1521.72,667.636 1522.46,665.669C1522.86,664.536 1523.16,663.652 1523.36,663.019C1518.76,662.686 1515.57,662.719 1513.81,663.119C1513.67,661.986 1513.64,661.069 1513.71,660.369C1515.71,659.802 1519.31,659.402 1524.51,659.169C1525.71,654.869 1526.68,650.427 1527.43,645.844C1528.18,641.261 1528.49,638.269 1528.36,636.869C1529.46,636.369 1531.82,636.186 1535.46,636.319C1539.09,636.452 1541.31,636.369 1542.11,636.069ZM1531.51,659.119C1533.37,659.186 1535.16,659.286 1536.86,659.419C1536.32,653.552 1535.62,647.786 1534.76,642.119C1533.92,647.586 1532.84,653.252 1531.51,659.119Z" style="fill:rgb(255,96,166);fill-rule:nonzero;"/>
                <path d="M1572.66,637.119C1572.36,638.786 1572.33,643.844 1572.58,652.294C1572.83,660.744 1573.24,667.252 1573.81,671.819C1571.47,671.619 1568.61,671.669 1565.21,671.969C1565.34,669.836 1565.48,665.119 1565.63,657.819C1565.78,650.519 1565.84,646.086 1565.81,644.519C1565.77,643.052 1565.43,641.969 1564.78,641.269C1564.13,640.569 1563.32,640.219 1562.36,640.219C1560.92,640.219 1559.84,640.661 1559.11,641.544C1558.37,642.427 1558.02,643.936 1558.06,646.069C1558.09,648.436 1558.51,650.377 1559.33,651.894C1560.15,653.411 1561.57,654.469 1563.61,655.069C1562.61,662.369 1561.12,667.802 1559.16,671.369C1558.39,672.769 1557.35,673.736 1556.03,674.269C1554.71,674.802 1553.43,674.944 1552.18,674.694C1550.93,674.444 1549.77,673.952 1548.71,673.219C1547.64,672.486 1546.92,671.619 1546.56,670.619C1548.02,670.652 1549.41,670.219 1550.71,669.319C1552.01,668.419 1553.1,667.244 1553.98,665.794C1554.86,664.344 1555.6,662.827 1556.18,661.244C1556.76,659.661 1557.19,658.086 1557.46,656.519C1555.29,655.452 1553.66,653.936 1552.56,651.969C1551.46,650.002 1550.99,647.869 1551.16,645.569C1551.29,643.302 1551.93,641.436 1553.08,639.969C1554.23,638.502 1555.55,637.494 1557.03,636.944C1558.51,636.394 1560.14,636.119 1561.91,636.119C1565.61,636.119 1569.19,636.452 1572.66,637.119Z" style="fill:rgb(255,96,166);fill-rule:nonzero;"/>
                <path d="M1378.21,686.619C1381.14,686.952 1383.66,686.952 1385.76,686.619C1385.36,688.786 1385.25,694.669 1385.43,704.269C1385.61,713.869 1385.89,719.569 1386.26,721.369C1385.12,721.069 1383.69,720.961 1381.96,721.044C1380.22,721.127 1378.79,721.302 1377.66,721.569C1378.16,719.502 1378.47,713.727 1378.61,704.244C1378.74,694.761 1378.61,688.886 1378.21,686.619ZM1401.21,686.419C1401.01,689.652 1400.49,692.411 1399.66,694.694C1398.82,696.977 1397.91,698.694 1396.93,699.844C1395.95,700.994 1394.56,702.319 1392.76,703.819C1394.89,704.552 1396.78,706.644 1398.43,710.094C1400.08,713.544 1401.09,717.419 1401.46,721.719C1399.69,721.286 1398.2,721.069 1396.98,721.069C1395.76,721.069 1394.26,721.202 1392.46,721.469C1392.96,717.236 1392.53,713.561 1391.18,710.444C1389.83,707.327 1388.07,705.219 1385.91,704.119C1388.27,702.686 1390.3,700.202 1391.98,696.669C1393.66,693.136 1394.41,689.719 1394.21,686.419C1396.81,686.819 1399.14,686.819 1401.21,686.419Z" style="fill:rgb(255,96,166);fill-rule:nonzero;"/>
                <path d="M1425.61,686.119C1425.44,687.952 1425.42,690.419 1425.56,693.519C1425.69,696.619 1425.69,700.369 1425.56,704.769C1425.42,709.169 1425.06,712.469 1424.46,714.669C1423.86,716.902 1422.64,718.802 1420.81,720.369C1418.97,721.936 1416.59,722.769 1413.66,722.869C1411.26,723.002 1409.28,722.152 1407.73,720.319C1406.18,718.486 1405.61,716.386 1406.01,714.019C1407.04,715.486 1408.21,716.494 1409.53,717.044C1410.85,717.594 1412.08,717.702 1413.23,717.369C1414.38,717.036 1415.41,716.344 1416.31,715.294C1417.21,714.244 1417.81,712.969 1418.11,711.469C1418.27,710.302 1418.41,708.569 1418.51,706.269C1416.54,708.936 1413.87,709.902 1410.51,709.169C1409.81,709.002 1409.17,708.769 1408.61,708.469C1408.04,708.169 1407.56,707.861 1407.16,707.544C1406.76,707.227 1406.4,706.786 1406.08,706.219C1405.76,705.652 1405.51,705.161 1405.31,704.744C1405.11,704.327 1404.95,703.736 1404.83,702.969C1404.71,702.202 1404.62,701.611 1404.56,701.194C1404.49,700.777 1404.46,700.119 1404.46,699.219L1404.46,697.319C1404.46,696.952 1404.48,696.286 1404.53,695.319C1404.58,694.352 1404.61,693.736 1404.61,693.469C1404.67,691.602 1404.33,690.011 1403.58,688.694C1402.83,687.377 1401.52,686.286 1399.66,685.419C1400.89,685.086 1402.17,684.911 1403.51,684.894C1404.84,684.877 1406.13,685.036 1407.38,685.369C1408.63,685.702 1409.66,686.361 1410.48,687.344C1411.3,688.327 1411.71,689.569 1411.71,691.069C1411.71,691.836 1411.65,692.961 1411.53,694.444C1411.41,695.927 1411.37,697.236 1411.41,698.369C1411.44,699.502 1411.61,700.636 1411.91,701.769C1412.44,703.669 1413.27,704.602 1414.41,704.569C1415.57,704.536 1416.57,703.619 1417.41,701.819C1418.17,700.219 1418.56,698.319 1418.56,696.119L1418.61,696.069C1418.54,691.136 1418.37,687.869 1418.11,686.269C1420.27,686.469 1422.77,686.419 1425.61,686.119Z" style="fill:rgb(255,96,166);fill-rule:nonzero;"/>
                <path d="M1454.91,686.569C1454.37,687.269 1453.7,688.394 1452.88,689.944C1452.06,691.494 1451.04,693.502 1449.81,695.969C1448.57,698.436 1447.42,700.636 1446.36,702.569C1447.32,704.869 1448.36,707.527 1449.46,710.544C1450.56,713.561 1451.48,716.019 1452.23,717.919C1452.98,719.819 1453.67,721.252 1454.31,722.219C1450.51,721.686 1447.12,721.686 1444.16,722.219C1444.12,722.152 1443.85,720.377 1443.33,716.894C1442.81,713.411 1442.19,710.769 1441.46,708.969C1440.92,710.269 1440.41,711.827 1439.93,713.644C1439.45,715.461 1439.02,717.161 1438.66,718.744C1438.29,720.327 1438.06,721.286 1437.96,721.619C1435.06,721.119 1431.69,721.119 1427.86,721.619C1428.42,720.752 1429.14,719.394 1430.01,717.544C1430.87,715.694 1431.96,713.294 1433.28,710.344C1434.6,707.394 1435.71,704.986 1436.61,703.119C1434.04,697.086 1432.22,693.352 1431.16,691.919C1430.09,690.486 1429.06,689.419 1428.08,688.719C1427.1,688.019 1425.86,687.619 1424.36,687.519C1425.19,686.352 1426.43,685.494 1428.08,684.944C1429.73,684.394 1431.47,684.352 1433.31,684.819C1435.14,685.286 1436.59,686.302 1437.66,687.869C1437.96,688.336 1438.28,689.002 1438.63,689.869C1438.98,690.736 1439.27,691.519 1439.51,692.219C1439.74,692.919 1440.07,693.977 1440.51,695.394C1440.94,696.811 1441.26,697.819 1441.46,698.419C1442.09,696.986 1442.69,695.419 1443.26,693.719C1443.82,692.019 1444.34,690.402 1444.81,688.869C1445.27,687.336 1445.54,686.452 1445.61,686.219C1448.14,686.919 1451.24,687.036 1454.91,686.569Z" style="fill:rgb(255,96,166);fill-rule:nonzero;"/>
                <path d="M1481.96,686.419C1481.52,688.619 1481.41,694.611 1481.61,704.394C1481.81,714.177 1482.11,719.986 1482.51,721.819C1481.37,721.519 1479.86,721.402 1477.98,721.469C1476.1,721.536 1474.59,721.719 1473.46,722.019C1473.99,719.852 1474.32,713.852 1474.46,704.019C1472.49,703.686 1470.17,703.386 1467.51,703.119C1467.51,712.986 1467.87,719.186 1468.61,721.719C1465.41,721.319 1462.41,721.319 1459.61,721.719C1460.07,717.119 1460.37,710.769 1460.51,702.669C1457.24,702.569 1454.99,702.669 1453.76,702.969C1453.69,702.436 1453.66,701.836 1453.66,701.169C1454.92,700.802 1457.22,700.419 1460.56,700.019C1460.62,696.952 1460.59,694.686 1460.46,693.219C1460.02,688.419 1457.89,685.452 1454.06,684.319C1454.96,683.419 1456.14,682.844 1457.61,682.594C1459.07,682.344 1460.51,682.444 1461.93,682.894C1463.35,683.344 1464.59,684.344 1465.66,685.894C1466.72,687.444 1467.29,689.419 1467.36,691.819C1467.42,693.286 1467.46,695.836 1467.46,699.469C1470.39,699.336 1472.72,699.336 1474.46,699.469C1474.46,692.602 1474.31,688.252 1474.01,686.419C1477.11,686.752 1479.76,686.752 1481.96,686.419Z" style="fill:rgb(255,96,166);fill-rule:nonzero;"/>
                <path d="M1507.81,687.119C1507.51,688.786 1507.48,693.844 1507.73,702.294C1507.98,710.744 1508.39,717.252 1508.96,721.819C1506.62,721.619 1503.76,721.669 1500.36,721.969C1500.49,719.836 1500.63,715.119 1500.78,707.819C1500.93,700.519 1500.99,696.086 1500.96,694.519C1500.92,693.052 1500.58,691.969 1499.93,691.269C1499.28,690.569 1498.47,690.219 1497.51,690.219C1496.07,690.219 1494.99,690.661 1494.26,691.544C1493.52,692.427 1493.17,693.936 1493.21,696.069C1493.24,698.436 1493.66,700.377 1494.48,701.894C1495.3,703.411 1496.72,704.469 1498.76,705.069C1497.76,712.369 1496.27,717.802 1494.31,721.369C1493.54,722.769 1492.5,723.736 1491.18,724.269C1489.86,724.802 1488.58,724.944 1487.33,724.694C1486.08,724.444 1484.92,723.952 1483.86,723.219C1482.79,722.486 1482.07,721.619 1481.71,720.619C1483.17,720.652 1484.56,720.219 1485.86,719.319C1487.16,718.419 1488.25,717.244 1489.13,715.794C1490.01,714.344 1490.75,712.827 1491.33,711.244C1491.91,709.661 1492.34,708.086 1492.61,706.519C1490.44,705.452 1488.81,703.936 1487.71,701.969C1486.61,700.002 1486.14,697.869 1486.31,695.569C1486.44,693.302 1487.08,691.436 1488.23,689.969C1489.38,688.502 1490.7,687.494 1492.18,686.944C1493.66,686.394 1495.29,686.119 1497.06,686.119C1500.76,686.119 1504.34,686.452 1507.81,687.119Z" style="fill:rgb(255,96,166);fill-rule:nonzero;"/>
            </g>
        </g>
        <g transform="matrix(3.15529,0,0,5.06468,2410.64,-3064.13)">
            <g transform="matrix(1.0261,-2.24844e-32,-1.79331e-32,0.639258,1587.68,1256.48)">
                <path d="M1336.43,77.934C1336.11,77.934 1335.79,77.826 1335.52,77.587L1330.09,72.847C1329.83,72.622 1329.5,72.502 1329.17,72.502C1329.05,72.502 1328.94,72.517 1328.82,72.546L1321.84,74.331C1321.72,74.362 1321.6,74.376 1321.49,74.376C1320.53,74.376 1319.8,73.378 1320.21,72.428L1323.04,65.8C1323.22,65.377 1323.18,64.892 1322.94,64.503L1319.08,58.414C1318.48,57.474 1319.17,56.269 1320.25,56.269C1320.3,56.269 1320.34,56.271 1320.39,56.275L1327.56,56.918C1327.61,56.922 1327.65,56.924 1327.69,56.924C1328.1,56.924 1328.5,56.74 1328.77,56.418L1333.37,50.87C1333.65,50.524 1334.05,50.364 1334.43,50.364C1335.05,50.364 1335.65,50.76 1335.8,51.451L1337.41,58.477C1337.51,58.925 1337.83,59.295 1338.26,59.464L1344.95,62.124C1346.03,62.552 1346.15,64.028 1345.16,64.623L1338.97,68.321C1338.58,68.557 1338.32,68.972 1338.29,69.431L1337.83,76.624C1337.78,77.417 1337.12,77.934 1336.43,77.934Z" style="fill:rgb(251,215,230);fill-rule:nonzero;"/>
            </g>
        </g>
        <g transform="matrix(3.15529,0,0,5.06468,2410.64,-3064.13)">
            <g transform="matrix(1.0261,-2.24844e-32,-1.79331e-32,0.639258,1398.97,1319.78)">
                <path d="M1336.43,77.934C1336.11,77.934 1335.79,77.826 1335.52,77.587L1330.09,72.847C1329.83,72.622 1329.5,72.502 1329.17,72.502C1329.05,72.502 1328.94,72.517 1328.82,72.546L1321.84,74.331C1321.72,74.362 1321.6,74.376 1321.49,74.376C1320.53,74.376 1319.8,73.378 1320.21,72.428L1323.04,65.8C1323.22,65.377 1323.18,64.892 1322.94,64.503L1319.08,58.414C1318.48,57.474 1319.17,56.269 1320.25,56.269C1320.3,56.269 1320.34,56.271 1320.39,56.275L1327.56,56.918C1327.61,56.922 1327.65,56.924 1327.69,56.924C1328.1,56.924 1328.5,56.74 1328.77,56.418L1333.37,50.87C1333.65,50.524 1334.05,50.364 1334.43,50.364C1335.05,50.364 1335.65,50.76 1335.8,51.451L1337.41,58.477C1337.51,58.925 1337.83,59.295 1338.26,59.464L1344.95,62.124C1346.03,62.552 1346.15,64.028 1345.16,64.623L1338.97,68.321C1338.58,68.557 1338.32,68.972 1338.29,69.431L1337.83,76.624C1337.78,77.417 1337.12,77.934 1336.43,77.934Z" style="fill:rgb(251,215,230);fill-rule:nonzero;"/>
            </g>
        </g>
        <g transform="matrix(3.15529,0,0,5.06468,2410.64,-3064.13)">
            <g transform="matrix(0.543292,-1.19049e-32,-9.49509e-33,0.33847,2058.54,1359.05)">
                <path d="M1336.43,77.934C1336.11,77.934 1335.79,77.826 1335.52,77.587L1330.09,72.847C1329.83,72.622 1329.5,72.502 1329.17,72.502C1329.05,72.502 1328.94,72.517 1328.82,72.546L1321.84,74.331C1321.72,74.362 1321.6,74.376 1321.49,74.376C1320.53,74.376 1319.8,73.378 1320.21,72.428L1323.04,65.8C1323.22,65.377 1323.18,64.892 1322.94,64.503L1319.08,58.414C1318.48,57.474 1319.17,56.269 1320.25,56.269C1320.3,56.269 1320.34,56.271 1320.39,56.275L1327.56,56.918C1327.61,56.922 1327.65,56.924 1327.69,56.924C1328.1,56.924 1328.5,56.74 1328.77,56.418L1333.37,50.87C1333.65,50.524 1334.05,50.364 1334.43,50.364C1335.05,50.364 1335.65,50.76 1335.8,51.451L1337.41,58.477C1337.51,58.925 1337.83,59.295 1338.26,59.464L1344.95,62.124C1346.03,62.552 1346.15,64.028 1345.16,64.623L1338.97,68.321C1338.58,68.557 1338.32,68.972 1338.29,69.431L1337.83,76.624C1337.78,77.417 1337.12,77.934 1336.43,77.934Z" style="fill:rgb(251,215,230);fill-rule:nonzero;"/>
            </g>
        </g>
        <g transform="matrix(3.15529,0,0,5.06468,2410.64,-3064.13)">
            <g transform="matrix(0.543292,-1.19049e-32,-9.49509e-33,0.33847,2196.12,1281.87)">
                <path d="M1336.43,77.934C1336.11,77.934 1335.79,77.826 1335.52,77.587L1330.09,72.847C1329.83,72.622 1329.5,72.502 1329.17,72.502C1329.05,72.502 1328.94,72.517 1328.82,72.546L1321.84,74.331C1321.72,74.362 1321.6,74.376 1321.49,74.376C1320.53,74.376 1319.8,73.378 1320.21,72.428L1323.04,65.8C1323.22,65.377 1323.18,64.892 1322.94,64.503L1319.08,58.414C1318.48,57.474 1319.17,56.269 1320.25,56.269C1320.3,56.269 1320.34,56.271 1320.39,56.275L1327.56,56.918C1327.61,56.922 1327.65,56.924 1327.69,56.924C1328.1,56.924 1328.5,56.74 1328.77,56.418L1333.37,50.87C1333.65,50.524 1334.05,50.364 1334.43,50.364C1335.05,50.364 1335.65,50.76 1335.8,51.451L1337.41,58.477C1337.51,58.925 1337.83,59.295 1338.26,59.464L1344.95,62.124C1346.03,62.552 1346.15,64.028 1345.16,64.623L1338.97,68.321C1338.58,68.557 1338.32,68.972 1338.29,69.431L1337.83,76.624C1337.78,77.417 1337.12,77.934 1336.43,77.934Z" style="fill:rgb(251,215,230);fill-rule:nonzero;"/>
            </g>
        </g>
        <g transform="matrix(3.15529,0,0,5.06468,2410.64,-3064.13)">
            <g transform="matrix(0.543292,-1.19049e-32,-9.49509e-33,0.33847,2259.83,1282.43)">
                <path d="M1336.43,77.934C1336.11,77.934 1335.79,77.826 1335.52,77.587L1330.09,72.847C1329.83,72.622 1329.5,72.502 1329.17,72.502C1329.05,72.502 1328.94,72.517 1328.82,72.546L1321.84,74.331C1321.72,74.362 1321.6,74.376 1321.49,74.376C1320.53,74.376 1319.8,73.378 1320.21,72.428L1323.04,65.8C1323.22,65.377 1323.18,64.892 1322.94,64.503L1319.08,58.414C1318.48,57.474 1319.17,56.269 1320.25,56.269C1320.3,56.269 1320.34,56.271 1320.39,56.275L1327.56,56.918C1327.61,56.922 1327.65,56.924 1327.69,56.924C1328.1,56.924 1328.5,56.74 1328.77,56.418L1333.37,50.87C1333.65,50.524 1334.05,50.364 1334.43,50.364C1335.05,50.364 1335.65,50.76 1335.8,51.451L1337.41,58.477C1337.51,58.925 1337.83,59.295 1338.26,59.464L1344.95,62.124C1346.03,62.552 1346.15,64.028 1345.16,64.623L1338.97,68.321C1338.58,68.557 1338.32,68.972 1338.29,69.431L1337.83,76.624C1337.78,77.417 1337.12,77.934 1336.43,77.934Z" style="fill:rgb(251,215,230);fill-rule:nonzero;"/>
            </g>
        </g>
        <g transform="matrix(3.15529,0,0,5.06468,2410.64,-3064.13)">
            <g transform="matrix(0.543292,-1.19049e-32,-9.49509e-33,0.33847,2031.55,1357.67)">
                <path d="M1336.43,77.934C1336.11,77.934 1335.79,77.826 1335.52,77.587L1330.09,72.847C1329.83,72.622 1329.5,72.502 1329.17,72.502C1329.05,72.502 1328.94,72.517 1328.82,72.546L1321.84,74.331C1321.72,74.362 1321.6,74.376 1321.49,74.376C1320.53,74.376 1319.8,73.378 1320.21,72.428L1323.04,65.8C1323.22,65.377 1323.18,64.892 1322.94,64.503L1319.08,58.414C1318.48,57.474 1319.17,56.269 1320.25,56.269C1320.3,56.269 1320.34,56.271 1320.39,56.275L1327.56,56.918C1327.61,56.922 1327.65,56.924 1327.69,56.924C1328.1,56.924 1328.5,56.74 1328.77,56.418L1333.37,50.87C1333.65,50.524 1334.05,50.364 1334.43,50.364C1335.05,50.364 1335.65,50.76 1335.8,51.451L1337.41,58.477C1337.51,58.925 1337.83,59.295 1338.26,59.464L1344.95,62.124C1346.03,62.552 1346.15,64.028 1345.16,64.623L1338.97,68.321C1338.58,68.557 1338.32,68.972 1338.29,69.431L1337.83,76.624C1337.78,77.417 1337.12,77.934 1336.43,77.934Z" style="fill:rgb(251,215,230);fill-rule:nonzero;"/>
            </g>
        </g>
    </g>
</svg>
